<svg xmlns="http://www.w3.org/2000/svg" viewBox="0 0 1200 800" role="img" aria-label="Bilbao funicular illustration">
  <defs>
    <linearGradient id="bg" x1="0" y1="0" x2="1" y2="1">
      <stop offset="0%" stop-color="#f0eadf"/>
      <stop offset="100%" stop-color="#dcccb1"/>
    </linearGradient>
    <linearGradient id="hill" x1="0" y1="0" x2="0" y2="1">
      <stop offset="0%" stop-color="#7c9a5e"/>
      <stop offset="100%" stop-color="#537243"/>
    </linearGradient>
  </defs>
  <rect width="1200" height="800" fill="url(#bg)"/>
  <path d="M0 640c172-208 336-308 518-310 152-2 284 60 442 200 56 50 100 92 240 170H0Z" fill="url(#hill)"/>
  <path d="M164 628c130-118 238-186 332-204 112-22 210-3 314 57" fill="none" stroke="#e9f0d8" stroke-width="10" stroke-linecap="round" opacity=".8"/>
  <path d="M252 520l474 210" stroke="#e9f0d8" stroke-width="12" stroke-linecap="round"/>
  <path d="M284 542l20-40h620l20 40" fill="none" stroke="#f4f2ea" stroke-width="10" stroke-linejoin="round"/>
  <rect x="498" y="344" width="132" height="110" rx="24" fill="#2b3440"/>
  <rect x="514" y="360" width="100" height="78" rx="14" fill="#f2f7fb"/>
  <path d="M499 400h-120" stroke="#2b3440" stroke-width="14" stroke-linecap="round"/>
  <path d="M630 400h106" stroke="#2b3440" stroke-width="14" stroke-linecap="round"/>
  <circle cx="566" cy="526" r="18" fill="#2b3440"/>
  <circle cx="566" cy="526" r="8" fill="#f4d79b"/>
  <text x="86" y="118" fill="#5a6f3f" font-family="IBM Plex Mono, monospace" font-size="26" letter-spacing=".22em">BILBAO / FUNICULAR</text>
</svg>