<svg xmlns="http://www.w3.org/2000/svg" viewBox="0 0 1200 800" role="img" aria-label="Guggenheim Museum Bilbao illustration">
  <defs>
    <linearGradient id="bg" x1="0" y1="0" x2="1" y2="1">
      <stop offset="0%" stop-color="#f6f1e7"/>
      <stop offset="100%" stop-color="#e9dcc7"/>
    </linearGradient>
    <linearGradient id="river" x1="0" y1="0" x2="1" y2="0">
      <stop offset="0%" stop-color="#79bcd6"/>
      <stop offset="100%" stop-color="#3e7ea4"/>
    </linearGradient>
    <linearGradient id="metal" x1="0" y1="0" x2="1" y2="1">
      <stop offset="0%" stop-color="#f7f8fb"/>
      <stop offset="35%" stop-color="#d8dde6"/>
      <stop offset="70%" stop-color="#aab4c1"/>
      <stop offset="100%" stop-color="#eef2f7"/>
    </linearGradient>
  </defs>
  <rect width="1200" height="800" fill="url(#bg)"/>
  <path d="M0 520H1200V800H0Z" fill="#d7c3a4"/>
  <path d="M0 560C150 520 280 530 400 560C530 592 660 618 840 590C980 568 1080 534 1200 522V800H0Z" fill="url(#river)" opacity=".95"/>
  <path d="M146 534h906v22H146z" fill="#f0e0c5" opacity=".8"/>
  <path d="M240 372c60-95 170-138 283-136 85 2 166 34 227 94 36 35 74 97 94 154 8 22-5 43-30 43H252c-30 0-49-29-38-55 4-9 16-29 26-47z" fill="url(#metal)"/>
  <path d="M335 412c28-56 80-92 143-100 76-9 150 24 193 83 15 21 25 49 29 74H318c3-19 9-40 17-57z" fill="#fdfefe" opacity=".9"/>
  <path d="M494 220c37 0 67 30 67 67s-30 67-67 67-67-30-67-67 30-67 67-67z" fill="#f8fafc" opacity=".96"/>
  <path d="M468 287c0-18 14-32 32-32s32 14 32 32-14 32-32 32-32-14-32-32z" fill="#aab4c1"/>
  <path d="M638 355c49-70 117-119 197-140 34-9 70-12 105-9 27 2 50 25 50 52v54H638z" fill="#d7dde6" opacity=".9"/>
  <path d="M300 515c25-28 61-45 101-45 44 0 83 19 110 50" fill="none" stroke="#ffffff" stroke-width="8" stroke-linecap="round" opacity=".6"/>
  <path d="M102 604h996" stroke="#e9d9bc" stroke-width="10" opacity=".8"/>
  <text x="86" y="118" fill="#8e6f4d" font-family="IBM Plex Mono, monospace" font-size="26" letter-spacing=".22em">BILBAO / GUGGENHEIM</text>
</svg>